<svg xmlns="http://www.w3.org/2000/svg" xmlns:xlink="http://www.w3.org/1999/xlink" aria-hidden="true" role="img" class="iconify iconify--logos" width="31.88" height="32" preserveAspectRatio="xMidYMid meet" viewBox="0 0 256 257"><defs><linearGradient id="IconifyId1813088fe1fbc01fb466" x1="-.828%" x2="57.636%" y1="7.652%" y2="78.411%"><stop offset="0%" stop-color="#41D1FF"></stop><stop offset="100%" stop-color="#FF73A1"></stop></linearGradient><linearGradient id="IconifyId1813088fe1fbc01fb467" x1="43.376%" x2="50.316%" y1="2.242%" y2="89.03%"><stop offset="0%" stop-color="#BD34FE"></stop><stop offset="100%" stop-color="#73D0FF"></stop></linearGradient></defs><path fill="url(#IconifyId1813088fe1fbc01fb466)" d="M255.153 37.938L133.891 252.239c-2.483 4.44-8.862 4.466-11.382.048L.875 37.958c-2.746-4.906 1.246-10.86 6.994-10.86h240.29c5.791 0 9.691 6.034 6.994 10.84z"></path><path fill="url(#IconifyId1813088fe1fbc01fb467)" d="M185.432.063L96.44 17.501a3.268 3.268 3.268 0 0 0-2.634 3.014l-5.474 92.456a3.268 3.268 3.268 0 0 0 3.236 3.455h28.516c1.833 0 3.318-1.51 3.313-3.343l-.905-15.33a3.286 3.286 0 0 1 3.272-3.468h.005c.014 0 .026.005.04.005c1.82-.065 3.403-1.55 3.32-3.477l-2.14-36.217a3.268 3.268 0 0 1 3.236-3.455h16.945a3.268 3.268 0 0 1 3.236 3.455l-2.14 36.217c-.083 1.927 1.5 3.412 3.32 3.477c.014 0 .026-.005.04-.005h.005a3.286 3.286 0 0 1 3.272 3.468l-.905 15.33a3.273 3.273 0 0 0 3.313 3.343h28.516a3.268 3.268 0 0 0 3.236-3.455l-5.474-92.456a3.268 3.268 0 0 0-2.634-3.014L70.79.063C68.236-.291 65.641.114 63.5 1.225L3.264 37.94h249.472L192.72 1.225c-2.141-1.111-4.736-1.516-7.288-1.162z" transform="translate(0 40)" opacity=".3"></path></svg>
